<svg xmlns="http://www.w3.org/2000/svg" width="1200" height="300" viewBox="0 0 1200 300" role="img" aria-labelledby="title desc">
  <title id="title">Research Figure Checklist logo</title>
  <desc id="desc">A simple logo for Research Figure Checklist.</desc>

  <rect width="1200" height="300" fill="#FAFAFA"/>

  <g transform="translate(94 64)">
    <rect x="0" y="0" width="172" height="172" rx="28" fill="#FFFFFF" stroke="#D9D9D9" stroke-width="3"/>
    <rect x="30" y="34" width="112" height="78" rx="8" fill="#F8F8F8" stroke="#D7D7D7" stroke-width="2"/>
    <path d="M48 92 C62 58 82 86 98 52 C108 30 124 45 132 38" fill="none" stroke="#3C5488" stroke-width="8" stroke-linecap="round" stroke-linejoin="round"/>
    <circle cx="50" cy="92" r="6" fill="#3C5488"/>
    <circle cx="98" cy="52" r="6" fill="#4DBBD5"/>
    <circle cx="132" cy="38" r="6" fill="#E64B35"/>

    <rect x="34" y="130" width="18" height="18" rx="4" fill="#00A087" fill-opacity="0.18" stroke="#00A087" stroke-width="2"/>
    <path d="M38 139 L43 144 L51 133" fill="none" stroke="#00A087" stroke-width="3" stroke-linecap="round" stroke-linejoin="round"/>
    <line x1="66" y1="139" x2="138" y2="139" stroke="#CFCFCF" stroke-width="5" stroke-linecap="round"/>
  </g>

  <g transform="translate(304 106)">
    <text x="0" y="0" font-family="Arial, Helvetica, sans-serif" font-size="48" font-weight="700" fill="#1A1A1A" dominant-baseline="hanging">
      Research Figure Checklist
    </text>
    <text x="0" y="64" font-family="Arial, Helvetica, sans-serif" font-size="20" fill="#555555" dominant-baseline="hanging">
      Guide + Checklist + Cases + Templates
    </text>
  </g>
</svg>
